<?xml version="1.0" encoding="UTF-8" standalone="no"?>
<!DOCTYPE svg PUBLIC "-//W3C//DTD SVG 1.1//EN"
 "http://www.w3.org/Graphics/SVG/1.1/DTD/svg11.dtd">
<!-- Generated by graphviz version 13.1.1 (20250719.2154)
 -->
<!-- Title: G Pages: 1 -->
<svg width="864pt" height="111pt"
 viewBox="0.00 0.00 864.00 111.00" xmlns="http://www.w3.org/2000/svg" xmlns:xlink="http://www.w3.org/1999/xlink">
<g id="graph0" class="graph" transform="scale(0.600626 0.600626) rotate(0) translate(4 181.5)">
<title>G</title>
<polygon fill="white" stroke="none" points="-4,4 -4,-181.5 1434.5,-181.5 1434.5,4 -4,4"/>
<!-- Start -->
<g id="node1" class="node">
<title>Start</title>
<path fill="#cdebf9" stroke="black" d="M90.25,-53.5C90.25,-53.5 12,-53.5 12,-53.5 6,-53.5 0,-47.5 0,-41.5 0,-41.5 0,-29 0,-29 0,-23 6,-17 12,-17 12,-17 90.25,-17 90.25,-17 96.25,-17 102.25,-23 102.25,-29 102.25,-29 102.25,-41.5 102.25,-41.5 102.25,-47.5 96.25,-53.5 90.25,-53.5"/>
<text xml:space="preserve" text-anchor="middle" x="51.12" y="-38.1" font-family="Helvetica,sans-Serif" font-size="12.00">Year 0</text>
<text xml:space="preserve" text-anchor="middle" x="51.12" y="-23.85" font-family="Helvetica,sans-Serif" font-size="12.00">(Initial Decision)</text>
</g>
<!-- Ph1_Start -->
<g id="node2" class="node">
<title>Ph1_Start</title>
<path fill="#cdebf9" stroke="black" d="M368.75,-53.5C368.75,-53.5 249.25,-53.5 249.25,-53.5 243.25,-53.5 237.25,-47.5 237.25,-41.5 237.25,-41.5 237.25,-29 237.25,-29 237.25,-23 243.25,-17 249.25,-17 249.25,-17 368.75,-17 368.75,-17 374.75,-17 380.75,-23 380.75,-29 380.75,-29 380.75,-41.5 380.75,-41.5 380.75,-47.5 374.75,-53.5 368.75,-53.5"/>
<text xml:space="preserve" text-anchor="middle" x="309" y="-38.1" font-family="Helvetica,sans-Serif" font-size="12.00">Year 1&#45;3</text>
<text xml:space="preserve" text-anchor="middle" x="309" y="-23.85" font-family="Helvetica,sans-Serif" font-size="12.00">(Pre&#45;clinical to Phase 1)</text>
</g>
<!-- Start&#45;&gt;Ph1_Start -->
<g id="edge1" class="edge">
<title>Start&#45;&gt;Ph1_Start</title>
<path fill="none" stroke="#333333" d="M102.68,-35.25C137.75,-35.25 185.25,-35.25 225.72,-35.25"/>
<polygon fill="#333333" stroke="#333333" points="225.7,-38.75 235.7,-35.25 225.7,-31.75 225.7,-38.75"/>
<text xml:space="preserve" text-anchor="middle" x="169.75" y="-49.75" font-family="Helvetica,sans-Serif" font-size="10.00">Invest $22.25M</text>
<text xml:space="preserve" text-anchor="middle" x="169.75" y="-37.75" font-family="Helvetica,sans-Serif" font-size="10.00">(PV of Phase 1 Costs)</text>
</g>
<!-- Ph2_Start -->
<g id="node3" class="node">
<title>Ph2_Start</title>
<path fill="#cdebf9" stroke="black" d="M545.25,-91.5C545.25,-91.5 501.5,-91.5 501.5,-91.5 495.5,-91.5 489.5,-85.5 489.5,-79.5 489.5,-79.5 489.5,-67 489.5,-67 489.5,-61 495.5,-55 501.5,-55 501.5,-55 545.25,-55 545.25,-55 551.25,-55 557.25,-61 557.25,-67 557.25,-67 557.25,-79.5 557.25,-79.5 557.25,-85.5 551.25,-91.5 545.25,-91.5"/>
<text xml:space="preserve" text-anchor="middle" x="523.38" y="-76.1" font-family="Helvetica,sans-Serif" font-size="12.00">Year 4&#45;5</text>
<text xml:space="preserve" text-anchor="middle" x="523.38" y="-61.85" font-family="Helvetica,sans-Serif" font-size="12.00">(Phase 2)</text>
</g>
<!-- Ph1_Start&#45;&gt;Ph2_Start -->
<g id="edge2" class="edge">
<title>Ph1_Start&#45;&gt;Ph2_Start</title>
<path fill="none" stroke="#333333" d="M381.01,-47.96C413.13,-53.7 450.08,-60.31 478.14,-65.34"/>
<polygon fill="#333333" stroke="#333333" points="477.25,-68.73 487.71,-67.05 478.49,-61.84 477.25,-68.73"/>
<text xml:space="preserve" text-anchor="middle" x="432.12" y="-65.56" font-family="Helvetica,sans-Serif" font-size="10.00">Success (65%)</text>
</g>
<!-- Abandon_Ph1 -->
<g id="node6" class="node">
<title>Abandon_Ph1</title>
<path fill="#cdebf9" stroke="black" d="M551.25,-36.5C551.25,-36.5 495.5,-36.5 495.5,-36.5 489.5,-36.5 483.5,-30.5 483.5,-24.5 483.5,-24.5 483.5,-12 483.5,-12 483.5,-6 489.5,0 495.5,0 495.5,0 551.25,0 551.25,0 557.25,0 563.25,-6 563.25,-12 563.25,-12 563.25,-24.5 563.25,-24.5 563.25,-30.5 557.25,-36.5 551.25,-36.5"/>
<text xml:space="preserve" text-anchor="middle" x="523.38" y="-21.1" font-family="Helvetica,sans-Serif" font-size="12.00">Abandon</text>
<text xml:space="preserve" text-anchor="middle" x="523.38" y="-6.85" font-family="Helvetica,sans-Serif" font-size="12.00">(Value = $0)</text>
</g>
<!-- Ph1_Start&#45;&gt;Abandon_Ph1 -->
<g id="edge3" class="edge">
<title>Ph1_Start&#45;&gt;Abandon_Ph1</title>
<path fill="none" stroke="#333333" d="M381.01,-29.57C410.77,-27.18 444.67,-24.47 471.82,-22.3"/>
<polygon fill="#333333" stroke="#333333" points="471.81,-25.81 481.5,-21.52 471.25,-18.83 471.81,-25.81"/>
<text xml:space="preserve" text-anchor="middle" x="432.12" y="-30.27" font-family="Helvetica,sans-Serif" font-size="10.00">Failure (35%)</text>
</g>
<!-- Ph3_Start -->
<g id="node4" class="node">
<title>Ph3_Start</title>
<path fill="#cdebf9" stroke="black" d="M727.75,-123.5C727.75,-123.5 684,-123.5 684,-123.5 678,-123.5 672,-117.5 672,-111.5 672,-111.5 672,-99 672,-99 672,-93 678,-87 684,-87 684,-87 727.75,-87 727.75,-87 733.75,-87 739.75,-93 739.75,-99 739.75,-99 739.75,-111.5 739.75,-111.5 739.75,-117.5 733.75,-123.5 727.75,-123.5"/>
<text xml:space="preserve" text-anchor="middle" x="705.88" y="-108.1" font-family="Helvetica,sans-Serif" font-size="12.00">Year 6&#45;8</text>
<text xml:space="preserve" text-anchor="middle" x="705.88" y="-93.85" font-family="Helvetica,sans-Serif" font-size="12.00">(Phase 3)</text>
</g>
<!-- Ph2_Start&#45;&gt;Ph3_Start -->
<g id="edge4" class="edge">
<title>Ph2_Start&#45;&gt;Ph3_Start</title>
<path fill="none" stroke="#333333" d="M557.48,-79.12C586.4,-84.25 628.61,-91.73 660.45,-97.37"/>
<polygon fill="#333333" stroke="#333333" points="659.73,-100.8 670.18,-99.1 660.95,-93.91 659.73,-100.8"/>
<text xml:space="preserve" text-anchor="middle" x="614.62" y="-97.4" font-family="Helvetica,sans-Serif" font-size="10.00">Success (40%)</text>
</g>
<!-- Abandon_Ph2 -->
<g id="node7" class="node">
<title>Abandon_Ph2</title>
<path fill="#cdebf9" stroke="black" d="M733.75,-68.5C733.75,-68.5 678,-68.5 678,-68.5 672,-68.5 666,-62.5 666,-56.5 666,-56.5 666,-44 666,-44 666,-38 672,-32 678,-32 678,-32 733.75,-32 733.75,-32 739.75,-32 745.75,-38 745.75,-44 745.75,-44 745.75,-56.5 745.75,-56.5 745.75,-62.5 739.75,-68.5 733.75,-68.5"/>
<text xml:space="preserve" text-anchor="middle" x="705.88" y="-53.1" font-family="Helvetica,sans-Serif" font-size="12.00">Abandon</text>
<text xml:space="preserve" text-anchor="middle" x="705.88" y="-38.85" font-family="Helvetica,sans-Serif" font-size="12.00">(Value = $0)</text>
</g>
<!-- Ph2_Start&#45;&gt;Abandon_Ph2 -->
<g id="edge5" class="edge">
<title>Ph2_Start&#45;&gt;Abandon_Ph2</title>
<path fill="none" stroke="#333333" d="M557.64,-65.54C565.36,-63.94 573.56,-62.4 581.25,-61.25 605.2,-57.67 631.96,-55.11 654.43,-53.37"/>
<polygon fill="#333333" stroke="#333333" points="654.53,-56.87 664.25,-52.65 654.02,-49.89 654.53,-56.87"/>
<text xml:space="preserve" text-anchor="middle" x="614.62" y="-63.75" font-family="Helvetica,sans-Serif" font-size="10.00">Failure (60%)</text>
</g>
<!-- Reg_Start -->
<g id="node5" class="node">
<title>Reg_Start</title>
<path fill="#cdebf9" stroke="black" d="M984.5,-155.5C984.5,-155.5 860.5,-155.5 860.5,-155.5 854.5,-155.5 848.5,-149.5 848.5,-143.5 848.5,-143.5 848.5,-131 848.5,-131 848.5,-125 854.5,-119 860.5,-119 860.5,-119 984.5,-119 984.5,-119 990.5,-119 996.5,-125 996.5,-131 996.5,-131 996.5,-143.5 996.5,-143.5 996.5,-149.5 990.5,-155.5 984.5,-155.5"/>
<text xml:space="preserve" text-anchor="middle" x="922.5" y="-140.1" font-family="Helvetica,sans-Serif" font-size="12.00">Year 9</text>
<text xml:space="preserve" text-anchor="middle" x="922.5" y="-125.85" font-family="Helvetica,sans-Serif" font-size="12.00">(Regulatory Submission)</text>
</g>
<!-- Ph3_Start&#45;&gt;Reg_Start -->
<g id="edge6" class="edge">
<title>Ph3_Start&#45;&gt;Reg_Start</title>
<path fill="none" stroke="#333333" d="M739.94,-110.18C765.82,-114.04 803.01,-119.58 836.99,-124.65"/>
<polygon fill="#333333" stroke="#333333" points="836.47,-128.11 846.88,-126.12 837.5,-121.19 836.47,-128.11"/>
<text xml:space="preserve" text-anchor="middle" x="797.12" y="-125.67" font-family="Helvetica,sans-Serif" font-size="10.00">Success (25%)</text>
</g>
<!-- Abandon_Ph3 -->
<g id="node8" class="node">
<title>Abandon_Ph3</title>
<path fill="#cdebf9" stroke="black" d="M950.38,-100.5C950.38,-100.5 894.62,-100.5 894.62,-100.5 888.62,-100.5 882.62,-94.5 882.62,-88.5 882.62,-88.5 882.62,-76 882.62,-76 882.62,-70 888.62,-64 894.62,-64 894.62,-64 950.38,-64 950.38,-64 956.38,-64 962.38,-70 962.38,-76 962.38,-76 962.38,-88.5 962.38,-88.5 962.38,-94.5 956.38,-100.5 950.38,-100.5"/>
<text xml:space="preserve" text-anchor="middle" x="922.5" y="-85.1" font-family="Helvetica,sans-Serif" font-size="12.00">Abandon</text>
<text xml:space="preserve" text-anchor="middle" x="922.5" y="-70.85" font-family="Helvetica,sans-Serif" font-size="12.00">(Value = $0)</text>
</g>
<!-- Ph3_Start&#45;&gt;Abandon_Ph3 -->
<g id="edge7" class="edge">
<title>Ph3_Start&#45;&gt;Abandon_Ph3</title>
<path fill="none" stroke="#333333" d="M740.12,-97.43C747.84,-95.84 756.05,-94.32 763.75,-93.25 799.43,-88.27 839.99,-85.5 871.04,-83.99"/>
<polygon fill="#333333" stroke="#333333" points="871.1,-87.49 880.93,-83.54 870.79,-80.5 871.1,-87.49"/>
<text xml:space="preserve" text-anchor="middle" x="797.12" y="-95.75" font-family="Helvetica,sans-Serif" font-size="10.00">Failure (75%)</text>
</g>
<!-- Denial -->
<g id="node9" class="node">
<title>Denial</title>
<path fill="#ffdcdc" stroke="black" d="M1169.25,-177.5C1169.25,-177.5 1114.25,-177.5 1114.25,-177.5 1108.25,-177.5 1102.25,-171.5 1102.25,-165.5 1102.25,-165.5 1102.25,-153 1102.25,-153 1102.25,-147 1108.25,-141 1114.25,-141 1114.25,-141 1169.25,-141 1169.25,-141 1175.25,-141 1181.25,-147 1181.25,-153 1181.25,-153 1181.25,-165.5 1181.25,-165.5 1181.25,-171.5 1175.25,-177.5 1169.25,-177.5"/>
<text xml:space="preserve" text-anchor="middle" x="1141.75" y="-162.1" font-family="Helvetica,sans-Serif" font-size="12.00">Denial</text>
<text xml:space="preserve" text-anchor="middle" x="1141.75" y="-147.85" font-family="Helvetica,sans-Serif" font-size="12.00">(45% Prob.)</text>
</g>
<!-- Reg_Start&#45;&gt;Denial -->
<g id="edge9" class="edge">
<title>Reg_Start&#45;&gt;Denial</title>
<path fill="none" stroke="#333333" d="M996.75,-144.67C1027.57,-147.79 1062.67,-151.34 1090.49,-154.16"/>
<polygon fill="#333333" stroke="#333333" points="1090.13,-157.64 1100.43,-155.17 1090.84,-150.68 1090.13,-157.64"/>
<text xml:space="preserve" text-anchor="middle" x="1049.38" y="-155.85" font-family="Helvetica,sans-Serif" font-size="10.00">Denied (45%)</text>
</g>
<!-- Success -->
<g id="node10" class="node">
<title>Success</title>
<path fill="#d0f0c0" stroke="black" d="M1169.25,-122.5C1169.25,-122.5 1114.25,-122.5 1114.25,-122.5 1108.25,-122.5 1102.25,-116.5 1102.25,-110.5 1102.25,-110.5 1102.25,-98 1102.25,-98 1102.25,-92 1108.25,-86 1114.25,-86 1114.25,-86 1169.25,-86 1169.25,-86 1175.25,-86 1181.25,-92 1181.25,-98 1181.25,-98 1181.25,-110.5 1181.25,-110.5 1181.25,-116.5 1175.25,-122.5 1169.25,-122.5"/>
<text xml:space="preserve" text-anchor="middle" x="1141.75" y="-107.1" font-family="Helvetica,sans-Serif" font-size="12.00">Approved</text>
<text xml:space="preserve" text-anchor="middle" x="1141.75" y="-92.85" font-family="Helvetica,sans-Serif" font-size="12.00">(55% Prob.)</text>
</g>
<!-- Reg_Start&#45;&gt;Success -->
<g id="edge8" class="edge">
<title>Reg_Start&#45;&gt;Success</title>
<path fill="none" stroke="#333333" d="M996.75,-126.12C1027.71,-121.42 1062.98,-116.06 1090.87,-111.83"/>
<polygon fill="#333333" stroke="#333333" points="1091.08,-115.33 1100.44,-110.37 1090.03,-108.41 1091.08,-115.33"/>
<text xml:space="preserve" text-anchor="middle" x="1049.38" y="-125.23" font-family="Helvetica,sans-Serif" font-size="10.00">Approved (55%)</text>
</g>
<!-- Launch -->
<g id="node11" class="node">
<title>Launch</title>
<path fill="#c2e0c2" stroke="black" d="M1418.5,-122.5C1418.5,-122.5 1334.25,-122.5 1334.25,-122.5 1328.25,-122.5 1322.25,-116.5 1322.25,-110.5 1322.25,-110.5 1322.25,-98 1322.25,-98 1322.25,-92 1328.25,-86 1334.25,-86 1334.25,-86 1418.5,-86 1418.5,-86 1424.5,-86 1430.5,-92 1430.5,-98 1430.5,-98 1430.5,-110.5 1430.5,-110.5 1430.5,-116.5 1424.5,-122.5 1418.5,-122.5"/>
<text xml:space="preserve" text-anchor="middle" x="1376.38" y="-107.1" font-family="Helvetica,sans-Serif" font-size="12.00">Year 10+</text>
<text xml:space="preserve" text-anchor="middle" x="1376.38" y="-92.85" font-family="Helvetica,sans-Serif" font-size="12.00">(Launch &amp; Sales)</text>
</g>
<!-- Success&#45;&gt;Launch -->
<g id="edge10" class="edge">
<title>Success&#45;&gt;Launch</title>
<path fill="none" stroke="#333333" d="M1181.69,-104.25C1216.8,-104.25 1269.13,-104.25 1310.55,-104.25"/>
<polygon fill="#333333" stroke="#333333" points="1310.4,-107.75 1320.4,-104.25 1310.4,-100.75 1310.4,-107.75"/>
<text xml:space="preserve" text-anchor="middle" x="1251.75" y="-106.75" font-family="Helvetica,sans-Serif" font-size="10.00">NPV at Year 9 = $19.5B</text>
</g>
</g>
</svg>
